<svg width="431" height="431" viewBox="0 0 431 431" fill="none" xmlns="http://www.w3.org/2000/svg">
<circle cx="215.5" cy="215.5" r="215.5" fill="#B80000"/>
<path d="M141.676 196.818C141.373 193.485 140.025 190.894 137.631 189.045C135.267 187.167 131.888 186.227 127.494 186.227C124.585 186.227 122.161 186.606 120.222 187.364C118.282 188.121 116.828 189.167 115.858 190.5C114.888 191.803 114.388 193.303 114.358 195C114.297 196.394 114.57 197.621 115.176 198.682C115.813 199.742 116.722 200.682 117.903 201.5C119.116 202.288 120.57 202.985 122.267 203.591C123.964 204.197 125.873 204.727 127.994 205.182L135.994 207C140.6 208 144.661 209.333 148.176 211C151.722 212.667 154.691 214.652 157.085 216.955C159.509 219.258 161.343 221.909 162.585 224.909C163.828 227.909 164.464 231.273 164.494 235C164.464 240.879 162.979 245.924 160.04 250.136C157.1 254.348 152.873 257.576 147.358 259.818C141.873 262.061 135.252 263.182 127.494 263.182C119.706 263.182 112.919 262.015 107.131 259.682C101.343 257.348 96.8428 253.803 93.6307 249.045C90.4186 244.288 88.767 238.273 88.6761 231H110.222C110.403 234 111.206 236.5 112.631 238.5C114.055 240.5 116.009 242.015 118.494 243.045C121.009 244.076 123.919 244.591 127.222 244.591C130.252 244.591 132.828 244.182 134.949 243.364C137.1 242.545 138.752 241.409 139.903 239.955C141.055 238.5 141.646 236.833 141.676 234.955C141.646 233.197 141.1 231.697 140.04 230.455C138.979 229.182 137.343 228.091 135.131 227.182C132.949 226.242 130.161 225.379 126.767 224.591L117.04 222.318C108.979 220.47 102.631 217.485 97.9943 213.364C93.358 209.212 91.0549 203.606 91.0852 196.545C91.0549 190.788 92.6004 185.742 95.7216 181.409C98.8428 177.076 103.161 173.697 108.676 171.273C114.191 168.848 120.479 167.636 127.54 167.636C134.752 167.636 141.009 168.864 146.312 171.318C151.646 173.742 155.782 177.152 158.722 181.545C161.661 185.939 163.161 191.03 163.222 196.818H141.676ZM226.176 196.818C225.873 193.485 224.525 190.894 222.131 189.045C219.767 187.167 216.388 186.227 211.994 186.227C209.085 186.227 206.661 186.606 204.722 187.364C202.782 188.121 201.328 189.167 200.358 190.5C199.388 191.803 198.888 193.303 198.858 195C198.797 196.394 199.07 197.621 199.676 198.682C200.313 199.742 201.222 200.682 202.403 201.5C203.616 202.288 205.07 202.985 206.767 203.591C208.464 204.197 210.373 204.727 212.494 205.182L220.494 207C225.1 208 229.161 209.333 232.676 211C236.222 212.667 239.191 214.652 241.585 216.955C244.009 219.258 245.843 221.909 247.085 224.909C248.328 227.909 248.964 231.273 248.994 235C248.964 240.879 247.479 245.924 244.54 250.136C241.6 254.348 237.373 257.576 231.858 259.818C226.373 262.061 219.752 263.182 211.994 263.182C204.206 263.182 197.419 262.015 191.631 259.682C185.843 257.348 181.343 253.803 178.131 249.045C174.919 244.288 173.267 238.273 173.176 231H194.722C194.903 234 195.706 236.5 197.131 238.5C198.555 240.5 200.509 242.015 202.994 243.045C205.509 244.076 208.419 244.591 211.722 244.591C214.752 244.591 217.328 244.182 219.449 243.364C221.6 242.545 223.252 241.409 224.403 239.955C225.555 238.5 226.146 236.833 226.176 234.955C226.146 233.197 225.6 231.697 224.54 230.455C223.479 229.182 221.843 228.091 219.631 227.182C217.449 226.242 214.661 225.379 211.267 224.591L201.54 222.318C193.479 220.47 187.131 217.485 182.494 213.364C177.858 209.212 175.555 203.606 175.585 196.545C175.555 190.788 177.1 185.742 180.222 181.409C183.343 177.076 187.661 173.697 193.176 171.273C198.691 168.848 204.979 167.636 212.04 167.636C219.252 167.636 225.509 168.864 230.812 171.318C236.146 173.742 240.282 177.152 243.222 181.545C246.161 185.939 247.661 191.03 247.722 196.818H226.176ZM339.585 168.909V262H320.494L283.449 208.273H282.858V262H260.358V168.909H279.722L316.358 222.545H317.131V168.909H339.585Z" fill="white"/>
</svg>
